<?xml version="1.0" encoding="UTF-8" standalone="no"?>
<!DOCTYPE svg PUBLIC "-//W3C//DTD SVG 1.1//EN"
"http://www.w3.org/Graphics/SVG/1.1/DTD/svg11.dtd">
<svg version="1.1" xmlns="http://www.w3.org/2000/svg" xmlns:xlink="http://www.w3.org/1999/xlink">
<defs>
<style type="text/css"><![CDATA[
.g4_1{
fill: none;
stroke: #000000;
stroke-width: 2;
stroke-linecap: butt;
stroke-linejoin: miter;
}
.g3_1{
fill: none;
stroke: #000000;
stroke-width: 1;
stroke-linecap: butt;
stroke-linejoin: miter;
}
.g2_1{
fill: none;
stroke: #000000;
stroke-width: 1;
stroke-linecap: square;
stroke-linejoin: miter;
}
.g1_1{
fill: #FFFFFF;
}
]]></style>
</defs>
<path d="M30.6,100.8l212.3,0l0,-61.1l-212.3,0l0,61.1Z" class="g1_1" />
<path d="M30.6,100.8l212.3,0l0,-61.1l-212.3,0l0,61.1" class="g2_1" />
<path d="M678.3,96.3l192.5,0c4.3,0,7.7,-3.5,7.7,-7.7l0,-50.4c0,-4.2,-3.4,-7.6,-7.7,-7.6l-192.5,0c-4.2,0,-7.6,3.4,-7.6,7.6l0,50.4c0,4.2,3.4,7.7,7.6,7.7Z" class="g1_1" />
<path d="M678.3,96.3l192.5,0c4.3,0,7.7,-3.5,7.7,-7.7l0,-50.4c0,-4.2,-3.4,-7.6,-7.7,-7.6l-192.5,0c-4.2,0,-7.6,3.4,-7.6,7.6l0,50.4c0,4.2,3.4,7.7,7.6,7.7" class="g2_1" />
<path d="M695.1,149.7l175.7,0c4.3,0,7.7,-3.4,7.7,-7.6l0,-32.1c0,-4.2,-3.4,-7.6,-7.7,-7.6l-175.7,0c-4.2,0,-7.6,3.4,-7.6,7.6l0,32.1c0,4.2,3.4,7.6,7.6,7.6Z" class="g1_1" />
<path d="M695.1,149.7l175.7,0c4.3,0,7.7,-3.4,7.7,-7.6l0,-32.1c0,-4.2,-3.4,-7.6,-7.7,-7.6l-175.7,0c-4.2,0,-7.6,3.4,-7.6,7.6l0,32.1c0,4.2,3.4,7.6,7.6,7.6" class="g2_1" />
<path d="M38.2,152.8l132.9,0c4.2,0,7.7,-3.4,7.7,-7.7l0,-32c0,-4.3,-3.5,-7.7,-7.7,-7.7l-132.9,0c-4.2,0,-7.6,3.4,-7.6,7.7l0,32c0,4.3,3.4,7.7,7.6,7.7Z" class="g1_1" />
<path d="M38.2,152.8l132.9,0c4.2,0,7.7,-3.4,7.7,-7.7l0,-32c0,-4.3,-3.5,-7.7,-7.7,-7.7l-132.9,0c-4.2,0,-7.6,3.4,-7.6,7.7l0,32c0,4.3,3.4,7.7,7.6,7.7" class="g2_1" />
<path d="M30.5,126.5l148,0" class="g3_1" />
<path d="M119,105l0,47" class="g4_1" />
<path d="M78,105l0,47" class="g4_1" />
<path d="M38.2,585.1l832.6,0c4.3,0,7.7,-3.4,7.7,-7.6l0,-409.4c0,-4.3,-3.4,-7.7,-7.7,-7.7l-832.6,0c-4.2,0,-7.6,3.4,-7.6,7.7l0,409.4c0,4.2,3.4,7.6,7.6,7.6Z" class="g1_1" />
<path d="M38.2,585.1l832.6,0c4.3,0,7.7,-3.4,7.7,-7.6l0,-409.4c0,-4.3,-3.4,-7.7,-7.7,-7.7l-832.6,0c-4.2,0,-7.6,3.4,-7.6,7.7l0,409.4c0,4.2,3.4,7.6,7.6,7.6" class="g2_1" />
<path d="M30.5,190.5l848,0" class="g3_1" />
<path d="M30.5,260.5l848,0" class="g3_1" />
<path d="M30.5,321.5l848,0" class="g3_1" />
<path d="M30.5,350.5l848,0" class="g3_1" />
<path d="M32.5,382.5l846,0" class="g3_1" />
<path d="M194.5,351.5l0,234" class="g3_1" />
<path d="M356.5,351.5l0,234" class="g3_1" />
<path d="M518.5,351.5l0,234" class="g3_1" />
<path d="M734.5,351.5l0,59" class="g3_1" />
<path d="M30.5,411.5l848,0" class="g3_1" />
<path d="M831.1,406.4l39.7,0c1.7,0,3.1,-1.4,3.1,-3.1l0,-13.7c0,-1.7,-1.4,-3.1,-3.1,-3.1l-39.7,0c-1.7,0,-3,1.4,-3,3.1l0,13.7c0,1.7,1.3,3.1,3,3.1Z" class="g1_1" />
<path d="M831.1,406.4l39.7,0c1.7,0,3.1,-1.4,3.1,-3.1l0,-13.7c0,-1.7,-1.4,-3.1,-3.1,-3.1l-39.7,0c-1.7,0,-3,1.4,-3,3.1l0,13.7c0,1.7,1.3,3.1,3,3.1" class="g2_1" />
<path d="M522.5,567.5l351,0" class="g3_1" />
<path d="M30.5,439.5l487,0" class="g3_1" />
<path d="M30.5,466.5l489,0" class="g3_1" />
<path d="M30.5,495.5l487,0" class="g3_1" />
<image x="30" y="39" width="213" height="62" xlink:href="img/1.png" />
</svg>